<?xml version="1.0" standalone="no"?>
<svg xmlns:xlink="http://www.w3.org/1999/xlink" id="wave" style="transform:rotate(0deg); transition: 0.3s" viewBox="0 0 1440 490" version="1.1" xmlns="http://www.w3.org/2000/svg"><defs><linearGradient id="sw-gradient-0" x1="0" x2="0" y1="1" y2="0"><stop stop-color="rgba(66, 133, 244, 1)" offset="0%"/><stop stop-color="rgba(66, 133, 244, 1)" offset="100%"/></linearGradient></defs><path style="transform:translate(0, 0px); opacity:1" fill="url(#sw-gradient-0)" d="M0,98L48,89.8C96,82,192,65,288,81.7C384,98,480,147,576,196C672,245,768,294,864,269.5C960,245,1056,147,1152,106.2C1248,65,1344,82,1440,114.3C1536,147,1632,196,1728,245C1824,294,1920,343,2016,302.2C2112,261,2208,131,2304,138.8C2400,147,2496,294,2592,318.5C2688,343,2784,245,2880,171.5C2976,98,3072,49,3168,49C3264,49,3360,98,3456,114.3C3552,131,3648,114,3744,122.5C3840,131,3936,163,4032,171.5C4128,180,4224,163,4320,187.8C4416,212,4512,278,4608,253.2C4704,229,4800,114,4896,89.8C4992,65,5088,131,5184,138.8C5280,147,5376,98,5472,98C5568,98,5664,147,5760,179.7C5856,212,5952,229,6048,261.3C6144,294,6240,343,6336,343C6432,343,6528,294,6624,277.7C6720,261,6816,278,6864,285.8L6912,294L6912,490L6864,490C6816,490,6720,490,6624,490C6528,490,6432,490,6336,490C6240,490,6144,490,6048,490C5952,490,5856,490,5760,490C5664,490,5568,490,5472,490C5376,490,5280,490,5184,490C5088,490,4992,490,4896,490C4800,490,4704,490,4608,490C4512,490,4416,490,4320,490C4224,490,4128,490,4032,490C3936,490,3840,490,3744,490C3648,490,3552,490,3456,490C3360,490,3264,490,3168,490C3072,490,2976,490,2880,490C2784,490,2688,490,2592,490C2496,490,2400,490,2304,490C2208,490,2112,490,2016,490C1920,490,1824,490,1728,490C1632,490,1536,490,1440,490C1344,490,1248,490,1152,490C1056,490,960,490,864,490C768,490,672,490,576,490C480,490,384,490,288,490C192,490,96,490,48,490L0,490Z"/><defs><linearGradient id="sw-gradient-1" x1="0" x2="0" y1="1" y2="0"><stop stop-color="rgba(219, 68, 55, 1)" offset="0%"/><stop stop-color="rgba(219, 68, 55, 1)" offset="100%"/></linearGradient></defs><path style="transform:translate(0, 50px); opacity:0.9" fill="url(#sw-gradient-1)" d="M0,0L48,8.2C96,16,192,33,288,81.7C384,131,480,212,576,220.5C672,229,768,163,864,155.2C960,147,1056,196,1152,220.5C1248,245,1344,245,1440,253.2C1536,261,1632,278,1728,302.2C1824,327,1920,359,2016,351.2C2112,343,2208,294,2304,294C2400,294,2496,343,2592,318.5C2688,294,2784,196,2880,155.2C2976,114,3072,131,3168,163.3C3264,196,3360,245,3456,220.5C3552,196,3648,98,3744,49C3840,0,3936,0,4032,49C4128,98,4224,196,4320,204.2C4416,212,4512,131,4608,147C4704,163,4800,278,4896,310.3C4992,343,5088,294,5184,253.2C5280,212,5376,180,5472,187.8C5568,196,5664,245,5760,277.7C5856,310,5952,327,6048,294C6144,261,6240,180,6336,147C6432,114,6528,131,6624,138.8C6720,147,6816,147,6864,147L6912,147L6912,490L6864,490C6816,490,6720,490,6624,490C6528,490,6432,490,6336,490C6240,490,6144,490,6048,490C5952,490,5856,490,5760,490C5664,490,5568,490,5472,490C5376,490,5280,490,5184,490C5088,490,4992,490,4896,490C4800,490,4704,490,4608,490C4512,490,4416,490,4320,490C4224,490,4128,490,4032,490C3936,490,3840,490,3744,490C3648,490,3552,490,3456,490C3360,490,3264,490,3168,490C3072,490,2976,490,2880,490C2784,490,2688,490,2592,490C2496,490,2400,490,2304,490C2208,490,2112,490,2016,490C1920,490,1824,490,1728,490C1632,490,1536,490,1440,490C1344,490,1248,490,1152,490C1056,490,960,490,864,490C768,490,672,490,576,490C480,490,384,490,288,490C192,490,96,490,48,490L0,490Z"/><defs><linearGradient id="sw-gradient-2" x1="0" x2="0" y1="1" y2="0"><stop stop-color="rgba(244, 180, 0, 1)" offset="0%"/><stop stop-color="rgba(244, 180, 0, 0.42)" offset="100%"/></linearGradient></defs><path style="transform:translate(0, 100px); opacity:0.8" fill="url(#sw-gradient-2)" d="M0,49L48,114.3C96,180,192,310,288,351.2C384,392,480,343,576,294C672,245,768,196,864,171.5C960,147,1056,147,1152,171.5C1248,196,1344,245,1440,294C1536,343,1632,392,1728,343C1824,294,1920,147,2016,73.5C2112,0,2208,0,2304,73.5C2400,147,2496,294,2592,302.2C2688,310,2784,180,2880,147C2976,114,3072,180,3168,187.8C3264,196,3360,147,3456,155.2C3552,163,3648,229,3744,277.7C3840,327,3936,359,4032,383.8C4128,408,4224,425,4320,392C4416,359,4512,278,4608,228.7C4704,180,4800,163,4896,171.5C4992,180,5088,212,5184,187.8C5280,163,5376,82,5472,40.8C5568,0,5664,0,5760,49C5856,98,5952,196,6048,245C6144,294,6240,294,6336,245C6432,196,6528,98,6624,81.7C6720,65,6816,131,6864,163.3L6912,196L6912,490L6864,490C6816,490,6720,490,6624,490C6528,490,6432,490,6336,490C6240,490,6144,490,6048,490C5952,490,5856,490,5760,490C5664,490,5568,490,5472,490C5376,490,5280,490,5184,490C5088,490,4992,490,4896,490C4800,490,4704,490,4608,490C4512,490,4416,490,4320,490C4224,490,4128,490,4032,490C3936,490,3840,490,3744,490C3648,490,3552,490,3456,490C3360,490,3264,490,3168,490C3072,490,2976,490,2880,490C2784,490,2688,490,2592,490C2496,490,2400,490,2304,490C2208,490,2112,490,2016,490C1920,490,1824,490,1728,490C1632,490,1536,490,1440,490C1344,490,1248,490,1152,490C1056,490,960,490,864,490C768,490,672,490,576,490C480,490,384,490,288,490C192,490,96,490,48,490L0,490Z"/><defs><linearGradient id="sw-gradient-3" x1="0" x2="0" y1="1" y2="0"><stop stop-color="rgba(15, 157, 88, 1)" offset="0%"/><stop stop-color="rgba(15, 157, 88, 1)" offset="100%"/></linearGradient></defs><path style="transform:translate(0, 150px); opacity:0.7" fill="url(#sw-gradient-3)" d="M0,392L48,383.8C96,376,192,359,288,302.2C384,245,480,147,576,147C672,147,768,245,864,302.2C960,359,1056,376,1152,334.8C1248,294,1344,196,1440,204.2C1536,212,1632,327,1728,351.2C1824,376,1920,310,2016,310.3C2112,310,2208,376,2304,359.3C2400,343,2496,245,2592,245C2688,245,2784,343,2880,318.5C2976,294,3072,147,3168,138.8C3264,131,3360,261,3456,261.3C3552,261,3648,131,3744,114.3C3840,98,3936,196,4032,253.2C4128,310,4224,327,4320,310.3C4416,294,4512,245,4608,212.3C4704,180,4800,163,4896,163.3C4992,163,5088,180,5184,171.5C5280,163,5376,131,5472,171.5C5568,212,5664,327,5760,334.8C5856,343,5952,245,6048,187.8C6144,131,6240,114,6336,106.2C6432,98,6528,98,6624,147C6720,196,6816,294,6864,343L6912,392L6912,490L6864,490C6816,490,6720,490,6624,490C6528,490,6432,490,6336,490C6240,490,6144,490,6048,490C5952,490,5856,490,5760,490C5664,490,5568,490,5472,490C5376,490,5280,490,5184,490C5088,490,4992,490,4896,490C4800,490,4704,490,4608,490C4512,490,4416,490,4320,490C4224,490,4128,490,4032,490C3936,490,3840,490,3744,490C3648,490,3552,490,3456,490C3360,490,3264,490,3168,490C3072,490,2976,490,2880,490C2784,490,2688,490,2592,490C2496,490,2400,490,2304,490C2208,490,2112,490,2016,490C1920,490,1824,490,1728,490C1632,490,1536,490,1440,490C1344,490,1248,490,1152,490C1056,490,960,490,864,490C768,490,672,490,576,490C480,490,384,490,288,490C192,490,96,490,48,490L0,490Z"/></svg>